HIERARCHY
ROOT hip
{
  OFFSET 0 0 0
  CHANNELS 6 Xposition Yposition Zposition Zrotation Yrotation Xrotation
  JOINT abdomen
  {
    OFFSET 0 20.6881 -0.73152
    CHANNELS 3 Zrotation Xrotation Yrotation
    JOINT chest
    {
      OFFSET 0 11.7043 -0.48768
      CHANNELS 3 Zrotation Xrotation Yrotation
      JOINT neck
      {
        OFFSET 0 22.1894 -2.19456
        CHANNELS 3 Zrotation Xrotation Yrotation
        JOINT head
        {
          OFFSET -0.24384 7.07133 1.2192
          CHANNELS 3 Zrotation Xrotation Yrotation
          JOINT leftEye
          {
            OFFSET 4.14528 8.04674 8.04672
            CHANNELS 3 Zrotation Xrotation Yrotation
            End Site
            {
              OFFSET 1 0 0
            }
          }
          JOINT rightEye
          {
            OFFSET -3.6576 8.04674 8.04672
            CHANNELS 3 Zrotation Xrotation Yrotation
            End Site
            {
              OFFSET 1 0 0
            }
          }
        }
      }
      JOINT rCollar
      {
        OFFSET -2.68224 19.2634 -4.8768
        CHANNELS 3 Zrotation Xrotation Yrotation
        JOINT rShldr
        {
          OFFSET -8.77824 -1.95073 1.46304
          CHANNELS 3 Zrotation Xrotation Yrotation
          JOINT rForeArm
          {
            OFFSET -28.1742 -1.7115 0.48768
            CHANNELS 3 Zrotation Xrotation Yrotation
            JOINT rHand
            {
              OFFSET -22.5879 0.773209 7.07136
              CHANNELS 3 Zrotation Xrotation Yrotation
              JOINT rThumb1
              {
                OFFSET -1.2192 -0.487915 3.41376
                CHANNELS 3 Zrotation Xrotation Yrotation
                JOINT rThumb2
                {
                  OFFSET -3.37035 -0.52449 3.41376
                  CHANNELS 3 Zrotation Xrotation Yrotation
                  End Site
                  {
                    OFFSET -1.78271 -1.18214 1.43049
                  }
                }
              }
              JOINT rIndex1
              {
                OFFSET -7.75947 0.938293 5.60832
                CHANNELS 3 Zrotation Xrotation Yrotation
                JOINT rIndex2
                {
                  OFFSET -2.54057 -0.884171 1.56538
                  CHANNELS 3 Zrotation Xrotation Yrotation
                  End Site
                  {
                    OFFSET -1.62519 -0.234802 1.16502
                  }
                }
              }
              JOINT rMid1
              {
                OFFSET -8.24714 1.18213 3.41376
                CHANNELS 3 Zrotation Xrotation Yrotation
                JOINT rMid2
                {
                  OFFSET -3.10165 -0.590103 1.0647
                  CHANNELS 3 Zrotation Xrotation Yrotation
                  End Site
                  {
                    OFFSET -2.48547 -0.328903 0.83742
                  }
                }
              }
              JOINT rRing1
              {
                OFFSET -8.82822 0.546677 1.51678
                CHANNELS 3 Zrotation Xrotation Yrotation
                JOINT rRing2
                {
                  OFFSET -2.60934 -0.819778 -0.0198488
                  CHANNELS 3 Zrotation Xrotation Yrotation
                  End Site
                  {
                    OFFSET -2.33842 -0.294052 0.168128
                  }
                }
              }
              JOINT rPinky1
              {
                OFFSET -8.27202 -0.0477905 -0.4584
                CHANNELS 3 Zrotation Xrotation Yrotation
                JOINT rPinky2
                {
                  OFFSET -1.82734 -0.647385 -0.700984
                  CHANNELS 3 Zrotation Xrotation Yrotation
                  End Site
                  {
                    OFFSET -1.69225 -0.51767 -0.607171
                  }
                }
              }
            }
          }
        }
      }
      JOINT lCollar
      {
        OFFSET 2.68224 19.2634 -4.8768
        CHANNELS 3 Zrotation Xrotation Yrotation
        JOINT lShldr
        {
          OFFSET 8.77824 -1.95073 1.46304
          CHANNELS 3 Zrotation Xrotation Yrotation
          JOINT lForeArm
          {
            OFFSET 28.1742 -1.7115 0.48768
            CHANNELS 3 Zrotation Xrotation Yrotation
            JOINT lHand
            {
              OFFSET 22.5879 0.773209 7.07136
              CHANNELS 3 Zrotation Xrotation Yrotation
              JOINT lThumb1
              {
                OFFSET 1.2192 -0.487915 3.41376
                CHANNELS 3 Zrotation Xrotation Yrotation
                JOINT lThumb2
                {
                  OFFSET 3.37035 -0.52449 3.41376
                  CHANNELS 3 Zrotation Xrotation Yrotation
                  End Site
                  {
                    OFFSET 1.78271 -1.18214 1.43049
                  }
                }
              }
              JOINT lIndex1
              {
                OFFSET 7.75947 0.938293 5.60832
                CHANNELS 3 Zrotation Xrotation Yrotation
                JOINT lIndex2
                {
                  OFFSET 2.54057 -0.884171 1.56538
                  CHANNELS 3 Zrotation Xrotation Yrotation
                  End Site
                  {
                    OFFSET 1.62519 -0.234802 1.16502
                  }
                }
              }
              JOINT lMid1
              {
                OFFSET 8.24714 1.18213 3.41376
                CHANNELS 3 Zrotation Xrotation Yrotation
                JOINT lMid2
                {
                  OFFSET 3.10165 -0.590103 1.0647
                  CHANNELS 3 Zrotation Xrotation Yrotation
                  End Site
                  {
                    OFFSET 2.48547 -0.328903 0.83742
                  }
                }
              }
              JOINT lRing1
              {
                OFFSET 8.82822 0.546677 1.51678
                CHANNELS 3 Zrotation Xrotation Yrotation
                JOINT lRing2
                {
                  OFFSET 2.60934 -0.819778 -0.0198488
                  CHANNELS 3 Zrotation Xrotation Yrotation
                  End Site
                  {
                    OFFSET 2.33842 -0.294052 0.168128
                  }
                }
              }
              JOINT lPinky1
              {
                OFFSET 8.27202 -0.0477905 -0.4584
                CHANNELS 3 Zrotation Xrotation Yrotation
                JOINT lPinky2
                {
                  OFFSET 1.82734 -0.647385 -0.700984
                  CHANNELS 3 Zrotation Xrotation Yrotation
                  End Site
                  {
                    OFFSET 1.69225 -0.51767 -0.607171
                  }
                }
              }
            }
          }
        }
      }
    }
  }
  JOINT rButtock
  {
    OFFSET -8.77824 4.35084 1.2192
    CHANNELS 3 Zrotation Xrotation Yrotation
    JOINT rThigh
    {
      OFFSET 0 -1.70687 -2.19456
      CHANNELS 3 Zrotation Xrotation Yrotation
      JOINT rShin
      {
        OFFSET 0 -36.8199 0.73152
        CHANNELS 3 Zrotation Xrotation Yrotation
        JOINT rFoot
        {
          OFFSET 0.73152 -45.1104 -5.12064
          CHANNELS 3 Zrotation Xrotation Yrotation
          End Site
          {
            OFFSET -1.1221 -3.69964 12.103
          }
        }
      }
    }
  }
  JOINT lButtock
  {
    OFFSET 8.77824 4.35084 1.2192
    CHANNELS 3 Zrotation Xrotation Yrotation
    JOINT lThigh
    {
      OFFSET 0 -1.70687 -2.19456
      CHANNELS 3 Zrotation Xrotation Yrotation
      JOINT lShin
      {
        OFFSET 0 -36.8199 0.73152
        CHANNELS 3 Zrotation Xrotation Yrotation
        JOINT lFoot
        {
          OFFSET -0.73152 -45.1104 -5.12064
          CHANNELS 3 Zrotation Xrotation Yrotation
          End Site
          {
            OFFSET 1.1221 -3.69964 12.103
          }
        }
      }
    }
  }
}
MOTION
Frames:	4
Frame Time:	0.00833333
34.2805 76.8181 132.487 -359.706 -382.136 20.1196 -7.15745 -22.389 -5.06591 -1.34223 1.32707 -1.17406 -0.196485 -2.52747 -2.92071 4.65641 4.95909 -6.104 -0.0 0.0 0.0 -0.0 0.0 0.0 1.79178e-14 1.37015e-13 4.15985e-13 6.32155 -42.9285 -26.1857 -11.7248 -5.25714 21.0789 -0.358146 16.7753 2.42812 1.18716e-09 1.12351e-09 9.57215e-10 2.05984e-09 1.96886e-09 1.63386e-09 1.18716e-09 1.12351e-09 9.57208e-10 7.73091 5.47488 0.417314 1.18715e-09 1.12351e-09 9.57211e-10 2.90554 0.965183 0.102902 1.18716e-09 1.12351e-09 9.57214e-10 10.2786 0.731801 0.0259123 1.18715e-09 1.12351e-09 9.5722e-10 2.22167 -0.733487 -0.20892 1.78708e-14 1.37021e-13 4.15814e-13 -0.620321 -37.6643 18.0791 12.3556 -5.70114 -22.3003 0.0638994 -7.18805 1.01562 1.83876e-09 2.85877e-10 1.01014e-09 3.16959e-09 4.84409e-10 1.75198e-09 1.83875e-09 2.85875e-10 1.01015e-09 -7.73091 5.47488 -0.417314 1.83876e-09 2.85876e-10 1.01014e-09 -2.90554 0.965183 -0.102902 1.83876e-09 2.85874e-10 1.01014e-09 -10.2786 0.731801 -0.0259123 1.83876e-09 2.85877e-10 1.01012e-09 -2.22167 -0.733487 0.20892 -2.03217e-16 0.0 -3.88251e-19 7.07514 -33.7783 53.6635 -0.452496 42.8513 0.689633 1.98999 -20.1003 9.51743 2.03217e-16 0.0 3.88251e-19 -11.5949 -35.071 -21.1403 0.0148022 33.8919 -0.595943 0.947893 -16.5829 0.811379
34.5135 76.9088 132.418 -359.803 -383.559 20.3082 -7.1151 -22.4358 -5.08621 -1.2777 1.31757 -1.18284 -0.0191488 -2.50615 -2.74157 4.59853 4.95044 -5.81137 -0.0 0.0 0.0 -0.0 0.0 0.0 8.04953e-14 2.90715e-13 7.42832e-13 6.33308 -43.165 -26.2393 -11.781 -5.29581 21.1876 -0.362826 16.8807 2.44431 2.79716e-09 2.37959e-09 2.65324e-09 4.86137e-09 4.18065e-09 4.54065e-09 2.79716e-09 2.3796e-09 2.65323e-09 7.73091 5.47488 0.417314 2.79715e-09 2.3796e-09 2.65323e-09 2.90554 0.965183 0.102902 2.79716e-09 2.3796e-09 2.65324e-09 10.2786 0.731801 0.0259123 2.79716e-09 2.3796e-09 2.65324e-09 2.22167 -0.733487 -0.20892 8.04588e-14 2.90723e-13 7.42585e-13 -0.82356 -37.5547 17.9355 12.386 -5.72306 -22.3596 0.0656643 -7.28575 1.02957 4.30255e-09 8.33103e-10 1.99853e-09 7.42128e-09 1.42064e-09 3.46933e-09 4.30254e-09 8.33102e-10 1.99854e-09 -7.73091 5.47488 -0.417314 4.30255e-09 8.33103e-10 1.99853e-09 -2.90554 0.965183 -0.102902 4.30255e-09 8.33103e-10 1.99853e-09 -10.2786 0.731801 -0.0259123 4.30255e-09 8.33104e-10 1.99852e-09 -2.22167 -0.733487 0.20892 -2.03217e-16 0.0 -3.88251e-19 7.05151 -34.3077 52.4087 -0.448302 42.8337 0.708791 1.11714 -20.0459 7.21719 2.03217e-16 0.0 3.88251e-19 -11.5195 -35.0052 -20.6545 0.00599231 33.5694 -0.591663 1.17107 -16.3216 1.65225
34.7427 77.0009 132.351 -359.893 -384.977 20.4984 -7.1159 -22.4892 -5.11526 -1.19874 1.31198 -1.19204 0.166999 -2.49541 -2.56153 4.5328 4.96849 -5.52108 -0.0 0.0 0.0 -0.0 0.0 0.0 1.23391e-13 3.97366e-13 8.97115e-13 6.38404 -43.3393 -26.2576 -11.8659 -5.35505 21.3506 -0.362946 16.885 2.44495 3.85505e-09 3.36172e-09 3.63383e-09 6.70114e-09 5.90333e-09 6.21997e-09 3.85505e-09 3.36172e-09 3.63382e-09 7.73091 5.47488 0.417314 3.85505e-09 3.36172e-09 3.63382e-09 2.90554 0.965183 0.102902 3.85506e-09 3.36173e-09 3.63382e-09 10.2786 0.731801 0.0259123 3.85505e-09 3.36172e-09 3.63383e-09 2.22167 -0.733487 -0.20892 1.23358e-13 3.97375e-13 8.96817e-13 -1.03495 -37.4053 17.8013 12.4188 -5.74675 -22.4235 0.0683903 -7.44085 1.05172 5.87014e-09 1.32936e-09 2.48045e-09 1.01278e-08 2.27257e-09 4.30836e-09 5.87013e-09 1.32936e-09 2.48046e-09 -7.73091 5.47488 -0.417314 5.87013e-09 1.32936e-09 2.48045e-09 -2.90554 0.965183 -0.102902 5.87013e-09 1.32936e-09 2.48045e-09 -10.2786 0.731801 -0.0259123 5.87014e-09 1.32936e-09 2.48044e-09 -2.22167 -0.733487 0.20892 -2.03217e-16 0.0 -3.88251e-19 6.96984 -34.8728 50.9896 -0.444156 42.8204 0.728874 0.244332 -19.8399 4.91719 2.03217e-16 0.0 3.88251e-19 -11.4607 -34.9325 -20.1629 -0.00380006 33.231 -0.586524 1.37598 -16.0606 2.4526
34.9674 77.0906 132.287 -359.962 -386.392 20.682 -7.18062 -22.5561 -5.15935 -1.10001 1.31472 -1.20221 0.370155 -2.50875 -2.38029 4.45232 5.02823 -5.23576 -0.0 0.0 0.0 -0.0 0.0 0.0 1.52609e-13 4.62585e-13 8.13927e-13 6.47658 -43.4489 -26.2393 -11.9794 -5.43432 21.57 -0.358902 16.7901 2.43042 4.46437e-09 4.48e-09 3.78239e-09 7.75687e-09 7.8462e-09 6.47013e-09 4.46437e-09 4.48e-09 3.78238e-09 7.73091 5.47488 0.417314 4.46436e-09 4.48001e-09 3.78239e-09 2.90554 0.965183 0.102902 4.46437e-09 4.48001e-09 3.78239e-09 10.2786 0.731801 0.0259123 4.46437e-09 4.48001e-09 3.7824e-09 2.22167 -0.733487 -0.20892 1.5257e-13 4.62595e-13 8.1361e-13 -1.25942 -37.1965 17.6774 12.4569 -5.77434 -22.4978 0.0729317 -7.69301 1.08776 6.56206e-09 2.11938e-09 2.22232e-09 1.13265e-08 3.63505e-09 3.86639e-09 6.56205e-09 2.11938e-09 2.22233e-09 -7.73091 5.47488 -0.417314 6.56206e-09 2.11938e-09 2.22232e-09 -2.90554 0.965183 -0.102902 6.56205e-09 2.11938e-09 2.22232e-09 -10.2786 0.731801 -0.0259123 6.56206e-09 2.11938e-09 2.22232e-09 -2.22167 -0.733487 0.20892 -2.03217e-16 0.0 -3.88251e-19 6.81601 -35.4722 49.3718 -0.440188 42.8126 0.749636 -0.60817 -19.441 2.62842 2.03217e-16 0.0 3.88251e-19 -11.4273 -34.8574 -19.657 -0.0148028 32.8741 -0.580378 1.55852 -15.7997 3.19336
